HIERARCHY
ROOT Hips
{
	OFFSET 0.00000 0.00000 0.00000
	CHANNELS 6 Xposition Yposition Zposition Zrotation Yrotation Xrotation 
	JOINT LHipJoint
	{
		OFFSET 0 0 0
		CHANNELS 3 Zrotation Yrotation Xrotation
		JOINT LeftHip
		{
			OFFSET 1.53139 -1.83434 0.76626
			CHANNELS 3 Zrotation Yrotation Xrotation
			JOINT LeftKnee
			{
				OFFSET 2.56112 -7.03663 0.00000
				CHANNELS 3 Zrotation Yrotation Xrotation
				JOINT LeftAnkle
				{
					OFFSET 2.59983 -7.14299 0.00000
					CHANNELS 3 Zrotation Yrotation Xrotation
					JOINT LeftToe
					{
						OFFSET 0.13742 -0.37757 2.00054
						CHANNELS 3 Zrotation Yrotation Xrotation
						End Site
						{
							OFFSET 0.00000 -0.00000 1.02897
						}
					}
				}
			}
		}
	}
	JOINT RHipJoint
	{
		OFFSET 0 0 0
		CHANNELS 3 Zrotation Yrotation Xrotation
		JOINT RightHip
		{
			OFFSET -1.40122 -1.83435 0.76627
			CHANNELS 3 Zrotation Yrotation Xrotation
			JOINT RightKnee
			{
				OFFSET -2.54052 -6.98003 0.00000
				CHANNELS 3 Zrotation Yrotation Xrotation
				JOINT RightAnkle
				{
					OFFSET -2.63179 -7.23079 0.00000
					CHANNELS 3 Zrotation Yrotation Xrotation
					JOINT RightToe
					{
						OFFSET -0.24131 -0.66299 2.03908
						CHANNELS 3 Zrotation Yrotation Xrotation
						End Site
						{
							OFFSET -0.00000 -0.00000 1.07391
						}
					}
				}
			}
		}
	}
	JOINT lowerback
	{
		OFFSET 0 0 0
		CHANNELS 3 Zrotation Yrotation Xrotation
		JOINT Chest
		{
			OFFSET 0.01174 2.10302 -0.29778
			CHANNELS 3 Zrotation Yrotation Xrotation
			JOINT Chest2
			{
				OFFSET 0.00772 2.13227 -0.01247
				CHANNELS 3 Zrotation Yrotation Xrotation
				JOINT lowerneck
				{
					OFFSET 0 0 0
					CHANNELS 3 Zrotation Yrotation Xrotation
					JOINT Neck
					{
						OFFSET -0.09219 1.60848 0.31481
						CHANNELS 3 Zrotation Yrotation Xrotation
						JOINT Head
						{
							OFFSET 0.13974 1.65456 -0.31134
							CHANNELS 3 Zrotation Yrotation Xrotation
							End Site
							{
								OFFSET 0.04742 1.69515 -0.14578
							}
						}
					}
				}
				JOINT LeftCollar
				{
					OFFSET 0 0 0
					CHANNELS 3 Zrotation Yrotation Xrotation
					JOINT LeftShoulder
					{
						OFFSET 3.24909 1.02882 -0.23993
CHANNELS 3 Zrotation Xrotation Yrotation
						JOINT LeftElbow
						{
OFFSET 0 -5.329550 -0.000000
CHANNELS 3 Zrotation Xrotation Yrotation
							JOINT LeftWrist
							{
OFFSET 0 -3.692320 -0.000000
CHANNELS 3 Zrotation Xrotation Yrotation
								JOINT lhand
								{
									OFFSET 0 0 0
CHANNELS 3 Zrotation Xrotation Yrotation
									JOINT LFingers
									{
OFFSET 0 -0.536600 -0.000000
CHANNELS 3 Zrotation Xrotation Yrotation
										End Site
										{
OFFSET 0 -0.432620 -0.000000
										}
									}
								}
								JOINT LThumb
								{
OFFSET 0 0.000000 0.000000
CHANNELS 3 Zrotation Xrotation Yrotation
									End Site
									{
OFFSET 0 -0.439220 0.439220
									}
								}
							}
						}
					}
				}
				JOINT RightCollar
				{
					OFFSET 0 0 0
					CHANNELS 3 Zrotation Yrotation Xrotation
					JOINT RightShoulder
					{
						OFFSET -3.21387 0.93002 -0.34594
CHANNELS 3 Zrotation Xrotation Yrotation
						JOINT RightElbow
						{
OFFSET 0 -5.234310 0.000000
CHANNELS 3 Zrotation Xrotation Yrotation
							JOINT RightWrist
							{
OFFSET 0 -3.553010 -0.000000
CHANNELS 3 Zrotation Xrotation Yrotation
								JOINT rhand
								{
									OFFSET 0 0 0
CHANNELS 3 Zrotation Xrotation Yrotation
									JOINT RFingers
									{
OFFSET 0 -0.772520 -0.000000
CHANNELS 3 Zrotation Xrotation Yrotation
										End Site
										{
OFFSET 0 -0.622830 -0.000000
										}
									}
								}
								JOINT RThumb
								{
OFFSET 0 0.000000 0.000000
CHANNELS 3 Zrotation Xrotation Yrotation
									End Site
									{
OFFSET 0 -0.632340 0.632340
									}
								}
							}
						}
					}
				}
			}
		}
	}
}
MOTION
Frames: 9
Frame Time: 0.008333333333333333
16.503300 17.835800 -9.831100 0.157000 -41.275300 2.729300 0.000000 0.000000 0.000000 -21.676000 -3.982600 -9.227600 2.399100 9.652100 27.857200 0.700800 -4.787700 -14.922000 0.188400 -2.795600 -7.710300 0.000000 0.000000 0.000000 24.579900 4.573400 -9.094500 -2.715600 -10.219800 29.691600 -1.175700 6.125100 -19.379900 -0.144400 -2.448600 6.747200 -0.740300 0.734200 7.016900 0.604700 0.943300 -0.966100 0.937800 0.495700 -4.963200 -10.463500 -5.194800 -20.613800 8.556500 -6.448200 24.837900 3.913400 -2.826200 12.264500 -0.000000 0.000000 0.000000 2.788500 5.755300 -27.289200 17.243800 -27.178100 4.198100 12.688500 13.986700 -24.525700 0.000000 0.000000 0.000000 -7.125000 0.000000 0.000000 -17.619900 54.169900 4.067400 -0.000000 0.000000 0.000000 -1.390100 3.599800 20.611100 -16.308900 -25.937700 -3.780100 -11.015700 4.839900 -11.362100 0.000000 0.000000 0.000000 7.125000 0.000000 -0.000000 11.287600 18.533000 7.256500
16.439806 17.847575 -9.906252 -2.498774 -40.020599 3.250503 0.000000 0.000000 0.000000 -18.342515 -6.041912 -14.863499 4.839996 13.198509 40.121131 0.393913 -5.983890 -11.298193 1.080220 -6.601992 -18.542861 0.000000 0.000000 0.000000 27.501494 3.267177 -6.723607 -2.247341 -9.362910 26.937508 -1.066193 5.205279 -18.475053 -0.231054 -3.091635 8.534094 1.142934 0.660781 9.012837 1.310235 1.067775 -0.367193 0.578273 0.509833 -5.447502 -10.566067 -5.134841 -19.747388 7.894644 -6.368730 26.582325 3.738102 -2.926967 12.753329 0.000000 0.000000 0.000000 2.661011 5.712834 -27.192297 18.551561 -28.857299 4.812653 12.975640 13.965628 -24.087062 0.000000 0.000000 0.000000 -7.125000 0.000000 0.000000 -17.107059 53.801828 3.787857 0.000000 0.000000 0.000000 -1.917924 2.899594 21.552837 -16.225423 -25.825341 -3.743629 -11.247979 4.073183 -10.636566 0.000000 0.000000 0.000000 7.125000 0.000000 0.000000 11.155282 19.245316 6.987847
16.321255 17.853384 -9.903735 -3.953336 -39.100741 2.950044 0.000000 0.000000 0.000000 -15.186125 -8.527674 -21.608621 7.720687 15.909779 51.549986 -0.120938 -8.658375 -3.334614 0.316001 -3.602118 -9.961152 0.000000 0.000000 0.000000 29.217388 1.289376 -4.027321 -1.769368 -8.367585 23.836600 -0.903946 4.780798 -16.998471 -0.160391 -2.578026 7.106157 2.283686 1.094162 10.321707 1.532896 1.786179 0.593892 0.054882 0.837088 -5.150030 -10.518750 -5.361860 -18.568166 7.518327 -6.890299 28.452934 3.547090 -3.252422 13.320349 0.000000 0.000000 0.000000 3.283106 5.961616 -29.051723 20.392242 -31.111809 5.732742 14.534322 11.770806 -24.022405 0.000000 0.000000 0.000000 -7.125000 0.000000 0.000000 -15.528724 54.027269 3.509356 0.000000 0.000000 0.000000 -1.928787 1.967582 22.401660 -16.488806 -26.178855 -3.859122 -11.254945 3.178833 -9.713771 0.000000 0.000000 0.000000 7.125000 0.000000 0.000000 11.192451 20.166530 6.776756
16.124081 17.896747 -9.755225 -3.873010 -39.396333 2.878649 0.000000 0.000000 0.000000 -14.263322 -9.950065 -25.257884 6.929873 15.271759 48.607281 0.092726 -7.815034 -7.275480 0.490096 -4.431785 -12.303290 0.000000 0.000000 0.000000 29.344808 0.450827 -1.779125 -1.393148 -7.466940 21.106558 -0.910564 4.479064 -17.085289 -0.058610 -1.561728 4.295868 2.294680 1.885354 10.396274 1.370188 2.824901 0.810931 -0.268469 1.349982 -4.939938 -11.042486 -5.663452 -16.823070 7.487562 -7.518778 30.196300 3.579033 -3.658388 13.787248 0.000000 0.000000 0.000000 3.579727 7.416583 -28.677432 21.253368 -32.122906 6.184150 15.955696 11.334594 -22.747702 0.000000 0.000000 0.000000 -7.125000 0.000000 0.000000 -13.522849 53.034011 2.715258 0.000000 0.000000 0.000000 -1.794261 1.649766 23.484976 -16.888438 -26.710438 -4.037061 -11.398266 3.241502 -9.648823 0.000000 0.000000 0.000000 7.125000 0.000000 0.000000 11.094184 20.225205 6.700018
15.880564 17.901807 -9.491671 -3.664536 -38.746568 3.457639 0.000000 0.000000 0.000000 -14.123972 -12.135796 -26.077000 3.939723 12.079566 36.014192 0.298682 -0.902296 -10.044445 0.417075 -4.144822 -11.484596 0.000000 0.000000 0.000000 29.291293 -0.227955 -0.260761 -1.134809 -6.765419 19.022360 -0.941960 4.432673 -17.390676 -0.151276 -2.506224 6.906852 2.762973 2.071327 9.944852 1.044181 3.097777 0.709969 -0.891399 1.475301 -4.745116 -11.348554 -5.819447 -15.923770 7.302442 -7.753071 30.827497 3.544344 -3.850610 13.902753 0.000000 0.000000 0.000000 3.460695 9.446083 -26.197579 20.452977 -31.184278 5.764128 13.904198 10.580839 -24.375983 0.000000 0.000000 0.000000 -7.125000 0.000000 0.000000 -16.335528 54.252672 3.791455 0.000000 0.000000 0.000000 -1.372904 1.728275 25.215051 -18.002262 -28.160001 -4.550300 -12.462787 2.052557 -9.217542 0.000000 0.000000 0.000000 7.125000 0.000000 0.000000 10.358144 20.611395 6.148501
15.577805 17.857977 -9.149607 -4.035033 -38.425599 4.179461 0.000000 0.000000 0.000000 -13.838303 -11.888069 -26.813636 1.703416 8.217183 23.376709 0.225407 -2.437780 -8.436467 0.757710 -5.513174 -15.389294 0.000000 0.000000 0.000000 29.646794 -1.448933 1.670231 -0.902099 -6.052501 16.936902 -0.919153 5.223822 -17.119056 -0.162070 -2.592118 7.145157 3.238084 2.374310 9.772351 1.015668 3.532699 0.989169 -1.227294 1.689857 -4.311990 -11.495407 -5.989014 -15.842285 7.399933 -7.904867 29.940690 3.563059 -3.903290 13.534590 0.000000 0.000000 0.000000 3.239922 10.147099 -23.626060 17.824660 -27.931636 4.467029 13.095259 13.489716 -24.255886 0.000000 0.000000 0.000000 -7.125000 0.000000 0.000000 -17.076576 53.986207 3.858884 0.000000 0.000000 0.000000 -1.553773 0.864374 27.218578 -19.313074 -29.805827 -5.185618 -12.878876 1.067836 -8.010083 0.000000 0.000000 0.000000 7.125000 0.000000 0.000000 10.115965 21.810680 5.721082
15.219532 17.782603 -8.687268 -4.769849 -38.375473 4.742221 0.000000 0.000000 0.000000 -12.889946 -12.876611 -27.331009 1.006717 6.384386 17.903796 0.214755 -0.220425 -8.680802 0.575982 -4.855457 -13.497638 0.000000 0.000000 0.000000 30.249016 -2.658054 5.406063 -0.549311 -4.747329 13.189464 -0.875583 4.680714 -16.728745 -0.042441 -1.324672 3.642651 3.706958 2.639436 10.093025 1.245061 3.952722 1.121169 -1.316816 1.890065 -4.319913 -11.484096 -5.994468 -15.651786 6.947168 -7.749962 29.614860 3.403273 -3.887501 13.315761 0.000000 0.000000 0.000000 2.754827 10.729519 -20.778077 15.057396 -24.225963 3.249512 12.793429 15.818202 -24.530424 0.000000 0.000000 0.000000 -7.125000 0.000000 0.000000 -17.518837 54.193783 4.053759 0.000000 0.000000 0.000000 -2.176490 0.115691 28.734812 -20.173951 -30.851306 -5.620281 -13.048410 -0.504971 -7.800431 0.000000 0.000000 0.000000 7.125000 0.000000 0.000000 10.003890 22.015977 5.608146
14.790823 17.707787 -8.078838 -4.662997 -39.633311 5.622767 0.000000 0.000000 0.000000 -12.038318 -14.388423 -26.915374 0.842462 5.854568 16.362998 0.185693 0.609029 -8.384346 0.639633 -5.116369 -14.240895 0.000000 0.000000 0.000000 29.712140 -2.819513 9.476459 -0.265469 -3.313570 9.153086 -0.831844 4.451271 -16.309869 -0.018008 -0.866854 2.382660 3.554383 3.204740 9.255769 0.857759 4.638599 1.008047 -1.669548 2.239765 -3.919216 -11.357070 -5.935411 -15.621278 7.187298 -7.797577 29.797278 3.474617 -3.867017 13.395402 0.000000 0.000000 0.000000 2.845770 11.753420 -18.700322 13.762142 -22.393601 2.736840 11.977054 17.417922 -24.973064 0.000000 0.000000 0.000000 -7.125000 0.000000 0.000000 -18.566535 54.463571 4.433171 0.000000 0.000000 0.000000 -1.532606 -0.809047 29.058181 -20.419264 -31.144175 -5.746621 -13.484158 -0.617372 -6.827089 0.000000 0.000000 0.000000 7.125000 0.000000 0.000000 9.737104 22.985236 5.235273
14.321462 17.685407 -7.339371 -3.487075 -41.976225 6.325544 0.000000 0.000000 0.000000 -13.012828 -14.059752 -25.662174 0.824558 5.793485 16.186225 0.032689 -0.418050 -3.281504 0.268399 -3.332291 -9.205327 0.000000 0.000000 0.000000 28.162053 -1.200997 12.769566 -0.184334 -2.765101 7.625586 -0.720541 2.947435 -15.307516 -0.006907 0.536413 -1.474064 2.594230 3.830450 8.589411 0.108926 5.344757 0.341300 -1.972347 2.592568 -4.221613 -11.167204 -5.847345 -15.933563 6.969042 -7.642958 30.120009 3.382580 -3.804460 13.561137 0.000000 0.000000 0.000000 2.757740 13.798956 -17.783991 14.141015 -22.935981 2.882850 11.101016 16.328098 -26.006262 0.000000 0.000000 0.000000 -7.125000 0.000000 0.000000 -20.029361 55.272587 5.204382 0.000000 0.000000 0.000000 -0.823346 -1.042158 29.651361 -19.845446 -30.455636 -5.452821 -13.554319 -0.240423 -7.456572 0.000000 0.000000 0.000000 7.125000 0.000000 0.000000 9.654219 22.345400 5.332969
